<?xml version="1.0" encoding="UTF-8"?>
<svg id="Capa_1" data-name="Capa 1" xmlns="http://www.w3.org/2000/svg" version="1.1" viewBox="0 0 400 100">
  <defs>
    <style>
      .cls-1 {
        fill: #0d1726;
      }

      .cls-1, .cls-2 {
        stroke-width: 0px;
      }

      .cls-2 {
        fill: #f29e07;
      }
    </style>
  </defs>
  <g>
    <path class="cls-1" d="M53.9,25.61c1.05-.27,2.11-.54,3.18-.82,1.07-.27,2.16-.5,3.27-.7,1.11-.19,2.19-.29,3.24-.29,2.26,0,4.19.51,5.81,1.52,1.61,1.01,2.82,2.38,3.62,4.11.8,1.73,1.2,3.61,1.2,5.63,0,3.15-.57,6.76-1.72,10.82-1.15,4.06-2.79,8.2-4.93,12.4-2.14,4.2-4.65,8.17-7.53,11.9-3.93,5.06-8.65,9.13-14.15,12.22-5.5,3.09-10.55,4.64-15.14,4.64-3.38,0-6.37-.92-8.96-2.77-2.59-1.85-4.61-4.53-6.07-8.05-1.46-3.52-2.19-7.65-2.19-12.4,0-6.38,1.74-12.77,5.22-19.17,3.48-6.4,7.88-12.19,13.19-17.39,5.31-5.19,10.67-9.35,16.07-12.49,5.41-3.13,9.8-4.7,13.19-4.7,2.76,0,4.88.85,6.36,2.54,1.48,1.69,2.86,4.42,4.14,8.2-3.62.12-6.77.55-9.45,1.31-2.68.76-5.47,1.92-8.34,3.47ZM39.19,37.46c-2.72,2.92-5.48,6.68-8.26,11.29-2.78,4.61-5.03,9.13-6.74,13.57-1.71,4.43-2.57,7.82-2.57,10.15,0,5.8,2.7,8.69,8.11,8.69,3.77,0,8.64-2.55,14.62-7.64,5.97-5.09,11.16-11.23,15.58-18.41,4.41-7.18,6.62-13.7,6.62-19.57,0-4.32-1.71-6.48-5.13-6.48-2.65,0-5.87,1.05-9.69,3.15-3.81,2.1-7.47,5.08-10.97,8.93-1.25,1.4-3.72,4.82-7.41,10.27.7-3.66,2.64-8.3,5.83-13.94Z"/>
    <path class="cls-1" d="M106.17,66.46v4.32c-8.13,10.77-14.74,16.16-19.84,16.16-2.76,0-4.93-1.51-6.51-4.52-1.58-3.01-2.36-6.97-2.36-11.87,0-3.97.93-8.68,2.8-14.15,1.87-5.46,4.37-11.01,7.5-16.63,3.13-5.62,6.38-10.52,9.74-14.7,3.36-4.18,6.49-7.11,9.36-8.78,1.17-.7,2.08-1.05,2.74-1.05.82,0,1.36.36,1.63,1.08.27.72.41,1.95.41,3.7,0,5.41-2.2,12.05-6.59,19.92-4.4,7.88-10.52,15.92-18.38,24.13-.39,2.02-.58,3.58-.58,4.67,0,2.49.53,4.51,1.6,6.07,1.07,1.56,2.56,2.33,4.46,2.33.97,0,2.02-.38,3.15-1.14,1.13-.76,2.31-1.7,3.56-2.83,1.24-1.13,3.68-3.36,7.29-6.71ZM88.73,55.95c2.02-1.98,3.98-4.24,5.86-6.77,1.89-2.53,3.67-5.23,5.34-8.11,1.67-2.88,2.98-5.46,3.94-7.76.95-2.29,1.43-4.03,1.43-5.19,0-.89-.31-1.34-.93-1.34-.23,0-.68.21-1.34.64-2.37,1.95-5.04,5.75-7.99,11.41-2.96,5.66-5.06,11.37-6.3,17.12Z"/>
    <path class="cls-1" d="M114.98,69.2v1.46c0,2.29.56,4.08,1.69,5.37,1.13,1.28,2.61,1.93,4.43,1.93s3.88-.45,5.92-1.34,4.07-2.08,6.1-3.56c2.02-1.48,4.49-3.46,7.41-5.95v3.56c-4.4,5.29-8.52,9.34-12.37,12.17-3.85,2.82-7.76,4.23-11.73,4.23-3.46,0-6.2-1.34-8.23-4.03-2.02-2.68-3.03-6.36-3.03-11.03,0-4.08.95-7.79,2.86-11.12,1.91-3.33,5.02-6.83,9.34-10.53,2.96-2.53,5.89-4.43,8.81-5.72,2.92-1.28,5.52-1.92,7.82-1.92,1.83,0,3.28.42,4.35,1.25,1.07.84,1.6,2.09,1.6,3.76,0,2.45-.91,4.89-2.74,7.32-1.83,2.43-4.62,4.84-8.37,7.23-3.75,2.39-8.37,4.7-13.86,6.91ZM115.57,65.41c3.5-1.36,6.5-3.05,8.99-5.08,2.49-2.02,4.33-3.96,5.51-5.81,1.19-1.85,1.78-3.2,1.78-4.05s-.41-1.34-1.23-1.34c-.7,0-1.84.45-3.41,1.34-1.58.89-3.17,2.06-4.78,3.5-1.61,1.44-3.06,3.13-4.35,5.08-1.28,1.95-2.12,4.07-2.51,6.36Z"/>
    <path class="cls-1" d="M168.43,67.1v4.26c-3.77,4.86-7.29,8.53-10.56,11-3.27,2.47-6.05,3.7-8.34,3.7-3.19,0-5.56-1.67-7.12-5.02-1.56-3.34-2.33-7-2.33-10.97,0-1.52.15-2.97.47-4.35.31-1.38.68-2.52,1.11-3.41.43-.89,1.23-2.29,2.39-4.2,5.52-8.6,10.58-12.89,15.17-12.89,2.37,0,3.56.91,3.56,2.74,0,1.25-.77,3.19-2.3,5.83-1.54,2.65-2.91,4.53-4.11,5.66-3.38,3.27-5.59,5.54-6.62,6.83-1.03,1.28-1.55,2.74-1.55,4.38,0,1.4.53,2.57,1.58,3.5,1.05.93,2.41,1.4,4.08,1.4,1.83,0,3.84-.67,6.04-2.01,2.2-1.34,5.05-3.49,8.55-6.45ZM164.46,41.02c-.97,0-1.9-.37-2.77-1.11-.88-.74-1.31-1.67-1.31-2.8,0-1.71.82-3.62,2.45-5.72,1.63-2.1,3.33-3.15,5.08-3.15,1.17,0,2.14.36,2.92,1.08.78.72,1.17,1.76,1.17,3.12,0,1.67-.8,3.52-2.39,5.54-1.6,2.02-3.31,3.03-5.13,3.03Z"/>
  </g>
  <g>
    <path class="cls-2" d="M185.33,69.13c.62,2.03,1.35,3.65,2.19,4.85,1.46,2.1,3.27,3.16,5.44,3.16,1.17,0,2.19-.46,3.04-1.37s1.28-2.18,1.28-3.82c0-1.47-.43-2.75-1.29-3.84-.56-.69-1.75-1.73-3.55-3.11l-3.14-2.41c-.95-.74-1.7-1.48-2.26-2.23-1.04-1.43-1.56-3-1.56-4.72,0-2.28.62-4.18,1.85-5.69,1.23-1.52,2.87-2.27,4.91-2.27.84,0,1.85.25,3.03.76,1.18.51,1.85.76,2.02.76.46,0,.77-.13.94-.4s.31-.64.4-1.13h.75l.81,9.62h-.88c-.6-2.9-1.56-4.92-2.89-6.07-1.32-1.15-2.63-1.72-3.93-1.72-1.01,0-1.88.36-2.63,1.09-.75.73-1.12,1.74-1.12,3.03,0,1.16.29,2.16.86,2.98.57.84,1.47,1.71,2.68,2.63l3.23,2.45c2.02,1.53,3.45,2.94,4.28,4.21.82,1.29,1.23,2.83,1.23,4.59,0,2.37-.73,4.35-2.18,5.94-1.46,1.59-3.32,2.38-5.58,2.38-1.14,0-2.33-.26-3.57-.79-1.24-.53-1.95-.79-2.13-.79-.43,0-.72.16-.87.49-.15.32-.25.67-.3,1.04h-.81l-1.1-9.62h.84Z"/>
    <path class="cls-2" d="M208.24,51.68c2.27-2.66,5.05-3.99,8.36-3.99s6.11,1.34,8.38,4.02c2.46,2.9,3.69,6.76,3.69,11.58s-1.27,8.8-3.81,11.7c-2.28,2.59-5.03,3.88-8.25,3.88-3.45,0-6.32-1.43-8.59-4.3-2.31-2.93-3.47-6.69-3.47-11.28,0-4.83,1.23-8.69,3.7-11.61ZM210.99,73.82c1.52,2.27,3.4,3.41,5.62,3.41s4.03-1.11,5.57-3.32c1.54-2.21,2.31-5.75,2.31-10.62s-.78-8.49-2.34-10.68c-1.56-2.19-3.41-3.29-5.54-3.29s-4.08,1.14-5.61,3.41c-1.53,2.27-2.29,5.79-2.29,10.56s.76,8.26,2.29,10.54Z"/>
    <path class="cls-2" d="M230.44,77.39c1.45-.19,2.35-.52,2.71-.98.35-.46.53-1.67.53-3.61v-19.57c0-1.6-.2-2.65-.59-3.14-.4-.49-1.28-.8-2.64-.92v-.84h19.61l.13,6.47h-1.02c-.25-2.07-.73-3.37-1.42-3.92s-2.07-.82-4.12-.82h-5.05c-.49,0-.81.1-.95.31-.14.21-.21.61-.21,1.21v10.08h5.34c1.57,0,2.57-.29,3-.86.43-.57.78-1.73,1.04-3.47h.86v10.44h-.86c-.28-1.75-.63-2.91-1.06-3.48-.43-.57-1.43-.85-2.98-.85h-5.34v9.89c0,1.65.21,2.71.62,3.17.41.46,1.32.76,2.71.89v.84h-10.3v-.84Z"/>
    <path class="cls-2" d="M251.22,48.33h20.82l.2,7.68h-.88c-.43-2.41-.98-3.98-1.65-4.71-.67-.73-2.06-1.09-4.2-1.09h-2.05v23.13c0,1.74.22,2.82.67,3.24s1.41.69,2.91.82v.84h-10.73v-.84c1.56-.15,2.53-.46,2.91-.94.38-.48.58-1.7.58-3.65v-22.6h-2.07c-2.04,0-3.42.36-4.16,1.08s-1.29,2.29-1.66,4.72h-.9l.22-7.68Z"/>
    <path class="cls-2" d="M282.19,48.33v.84c-.73.03-1.25.11-1.56.24-.55.25-.83.71-.83,1.37,0,.29.03.58.1.86.07.28.17.64.3,1.08l5.33,16.99,3.89-12.66-1.72-5.54c-.32-1-.81-1.67-1.46-2.01-.38-.21-.96-.32-1.74-.33v-.84h9.86v.84c-.92.01-1.56.1-1.91.24-.55.25-.83.77-.83,1.54,0,.26.02.5.07.7.05.2.17.61.36,1.22l5.32,16.95,4.61-15.34c.26-.87.44-1.64.54-2.32.06-.38.09-.69.09-.93,0-.84-.32-1.42-.97-1.74-.36-.19-.9-.3-1.62-.33v-.84h7.31v.84c-.66.12-1.16.3-1.51.55-.62.43-1.09,1.16-1.4,2.21l-3.86,13.47-1.49,5.2-2.33,8.16h-.57l-1.61-5.17-4.26-13.92-5.66,19.09h-.56l-2.74-9.36-3.11-10.6c-1.28-4.37-2.17-7.04-2.68-8.04-.51-.99-1.3-1.52-2.38-1.6v-.84h9.02Z"/>
    <path class="cls-2" d="M304.21,78.23v-.84c.95-.13,1.66-.57,2.13-1.31s1.29-2.78,2.43-6.1l7.67-22.18h.73l9.17,25.62c.61,1.7,1.1,2.75,1.46,3.15s.98.68,1.84.82v.84h-9.36v-.84c1.08-.12,1.77-.26,2.08-.43.31-.17.47-.58.47-1.24,0-.22-.06-.61-.18-1.16-.12-.56-.29-1.14-.5-1.76l-1.47-4.35h-9.7c-.96,2.96-1.53,4.76-1.71,5.41-.19.65-.28,1.17-.28,1.55,0,.76.25,1.29.75,1.58.31.18.9.31,1.76.39v.84h-7.29ZM320.06,66.62l-4.22-12.45-4.24,12.45h8.46Z"/>
    <path class="cls-2" d="M330.67,77.39c1.41-.16,2.29-.5,2.64-1.01.35-.51.52-1.71.52-3.58v-19.57c0-1.59-.19-2.63-.58-3.12-.39-.49-1.25-.81-2.58-.94v-.84h10.19c2.12,0,3.89.33,5.3.99,2.68,1.25,4.03,3.55,4.03,6.9,0,2.25-.6,3.97-1.79,5.18-1.19,1.21-2.81,2-4.86,2.38l7.59,11.47c.47.7.94,1.21,1.4,1.53.47.32,1.07.53,1.8.61v.84h-5.93l-9.21-13.92-1.62.11v8.91c0,1.67.21,2.73.62,3.18.41.45,1.31.74,2.71.89v.84h-10.23v-.84ZM343.25,61.72c1.95-.98,2.93-2.83,2.93-5.55s-.88-4.4-2.62-5.35c-.93-.51-2.18-.77-3.72-.77-1.04,0-1.68.09-1.91.28-.23.18-.35.61-.35,1.29v11.12c2.65-.12,4.54-.46,5.68-1.01Z"/>
    <path class="cls-2" d="M355.22,77.39c1.35-.17,2.23-.47,2.63-.89s.6-1.47.6-3.17v-20.1c0-1.6-.2-2.65-.59-3.14-.4-.49-1.28-.8-2.64-.92v-.84h19.56l.13,6.47h-.94c-.31-1.99-.78-3.28-1.4-3.87-.62-.59-2.01-.88-4.17-.88h-5.01c-.54,0-.88.11-1,.32-.13.21-.19.61-.19,1.2v10.08h5.68c1.57,0,2.57-.29,3-.86.43-.57.78-1.73,1.04-3.47h.86v10.44h-.86c-.28-1.75-.63-2.91-1.06-3.48-.43-.57-1.43-.85-2.98-.85h-5.68v11.19c0,.9.23,1.43.69,1.59s1.85.24,4.15.24c2.5,0,4.34-.33,5.53-1,1.19-.67,2.26-2.29,3.2-4.87h1.03l-1.67,7.63h-19.9v-.84Z"/>
  </g>
</svg>